<svg xmlns="http://www.w3.org/2000/svg" width="58" height="47" viewBox="0 0 58 47" fill="none"><g id="Logo"><g id="Group"><path id="Vector" d="M28.3206 23.8685L28.3206 23.8686C28.4215 24.1272 28.4187 24.3709 28.3189 24.5808C28.2568 24.7035 28.2773 24.8439 28.3416 24.9469C28.4123 25.066 28.5412 25.1298 28.6721 25.1298C28.717 25.1298 28.7761 25.1229 28.8321 25.0966C29.0023 25.0258 29.1507 24.9117 29.2719 24.769C29.5013 24.505 29.6234 24.1797 29.6214 23.8568C29.858 24.1276 29.9837 24.4418 29.9965 24.7784C29.9965 24.779 29.9965 24.7797 29.9965 24.7803C29.9965 24.7827 29.9965 24.7852 29.9965 24.788L27.0516 27.6342C26.9692 27.7112 26.9301 27.7941 26.9195 27.8727C26.9093 27.9491 26.9276 28.0104 26.9404 28.0435C26.9737 28.1301 27.084 28.2668 27.3235 28.2741L27.3235 28.2741H27.3272H27.5932V30.8026H26.5038C26.4462 26.5184 27.6738 24.2755 28.1622 23.5615C28.2239 23.648 28.2775 23.7578 28.3206 23.8685Z" fill="#1FA67D" stroke="#1FA67D" stroke-width="0.239921"></path><path id="Vector_2" d="M31.3119 30.8083H29.8739V28.9976H31.3067L31.3119 30.8083Z" fill="#1FA67D" stroke="#1FA67D" stroke-width="0.239921"></path><path id="Vector_3" d="M28.8654 0.578217L6.18848 38.8462H18.79L23.4272 30.9283H24.2341C24.3452 28.308 25.1698 26.206 25.8481 24.8902C26.427 23.768 27.0117 23.0161 27.269 22.7085C27.1287 22.6059 26.9533 22.5547 26.7544 22.5262C26.4445 22.4863 26.1638 22.5547 25.9475 22.7199C25.9007 22.754 25.8422 22.7768 25.7837 22.7768C25.7019 22.7768 25.62 22.7427 25.5732 22.68C25.5206 22.6173 25.5031 22.5376 25.5206 22.4578C25.5557 22.304 25.6259 22.1559 25.7253 22.0192C25.9884 21.6717 26.4094 21.4724 26.8305 21.5009C26.4913 21.2445 26.1229 21.1192 25.7428 21.1192C25.6317 21.1192 25.5206 21.1306 25.4037 21.1534C25.3861 21.1591 25.3686 21.1591 25.3452 21.1591C25.2458 21.1591 25.1522 21.1021 25.1054 21.0167C25.0586 20.9255 25.0703 20.823 25.1288 20.7432C25.3276 20.4755 25.5908 20.2875 25.9299 20.1622C26.1638 20.0768 26.4036 20.0312 26.6492 20.0312C26.8656 20.0312 27.0702 20.0654 27.2632 20.128C27.1462 20.0426 27.0234 19.9685 26.8831 19.9173C26.7661 19.8717 26.696 19.7635 26.7018 19.6438C26.7077 19.5185 26.7837 19.416 26.9006 19.3761C27.1579 19.285 27.4386 19.2622 27.731 19.3078C28.4678 19.416 29.0642 19.8831 29.2748 20.5268C29.3274 20.6863 29.3566 20.8458 29.3625 21.0053C29.5262 20.9768 29.6958 20.9654 29.8654 20.9825C30.5554 21.0394 31.1577 21.4952 31.4325 22.173C31.5378 22.4351 31.5787 22.6914 31.5495 22.9591C31.5378 23.1072 31.4033 23.2211 31.2454 23.2211C31.146 23.2211 31.0583 23.1756 30.9998 23.0958C30.9179 22.9819 30.8185 22.8794 30.7074 22.7939C30.9413 23.1585 31.0407 23.6085 30.9764 24.0699C30.9472 24.2636 30.8945 24.4402 30.8127 24.6054C30.8244 24.611 30.8127 24.6224 30.8244 24.6338L31.912 25.7104V25.568C31.912 25.3459 32.1459 25.0611 32.374 25.0611H33.0172C33.2453 25.0611 33.4324 25.3516 33.4324 25.568V27.1231L34.0464 27.7212C34.175 27.8466 34.1341 27.9605 34.1166 28.0061C34.099 28.0516 34.0347 28.1542 33.8593 28.1599H33.4324V30.9283H34.2978L38.935 38.8462H51.5365L28.8654 0.578217Z" fill="#1FA67D" stroke="#1FA67D" stroke-width="0.239921" stroke-miterlimit="10"></path></g><g id="Group_2"><g id="Group_3"><path id="Vector_4" d="M8.2757 44.2292L7.70849 45.6305H6.97754L8.83707 41.1817H9.69082L11.5562 45.6305H10.8019L10.2171 44.2292H8.2757ZM10.0709 43.7792L9.53294 42.4975C9.41014 42.207 9.32827 41.945 9.2464 41.6886H9.23471C9.15284 41.9507 9.06513 42.2241 8.95987 42.4918L8.42189 43.7792H10.0709Z" fill="#1FA67D" stroke="#1FA67D" stroke-width="1.91937" stroke-miterlimit="10"></path><path id="Vector_5" d="M14.3343 45.6248L12.5508 41.176H13.311L14.1647 43.3691C14.3986 43.9672 14.6033 44.5083 14.7495 45.0324H14.767C14.9191 44.5197 15.1471 43.9558 15.3927 43.3747L16.3166 41.176H17.071L15.112 45.6248H14.3343Z" fill="#1FA67D" stroke="#1FA67D" stroke-width="1.91937" stroke-miterlimit="10"></path><path id="Vector_6" d="M19.5669 41.1817V45.6305H18.8594V41.1817H19.5669Z" fill="#1FA67D" stroke="#1FA67D" stroke-width="1.91937" stroke-miterlimit="10"></path><path id="Vector_7" d="M23.1284 41.1817H23.836V44.1552C23.836 45.3343 23.1226 45.6989 22.1811 45.6989C21.9238 45.6989 21.6022 45.6533 21.4268 45.5906L21.532 45.1235C21.6782 45.1691 21.8887 45.209 22.1226 45.209C22.7542 45.209 23.1284 44.9754 23.1284 44.1096V41.1817Z" fill="#1FA67D" stroke="#1FA67D" stroke-width="1.91937" stroke-miterlimit="10"></path><path id="Vector_8" d="M27.0931 44.2292L26.5259 45.6305H25.7949L27.6545 41.1817H28.5082L30.3736 45.6305H29.6192L29.0345 44.2292H27.0931ZM28.8883 43.7792L28.3503 42.4975C28.2275 42.207 28.1457 41.945 28.0638 41.6886H28.0462C27.9644 41.9507 27.8767 42.2241 27.7714 42.4918L27.2334 43.7792H28.8883Z" fill="#1FA67D" stroke="#1FA67D" stroke-width="1.91937" stroke-miterlimit="10"></path><path id="Vector_9" d="M32.7945 41.6658H31.1279V41.176H35.1803V41.6658H33.5079V45.6248H32.7945V41.6658Z" fill="#1FA67D" stroke="#1FA67D" stroke-width="1.91937" stroke-miterlimit="10"></path><path id="Vector_10" d="M36.9932 41.2386C37.3499 41.1817 37.8645 41.1475 38.3498 41.1475C39.1041 41.1475 39.5895 41.2614 39.9345 41.5121C40.2093 41.7114 40.3672 42.0133 40.3672 42.3551C40.3672 42.9418 39.9111 43.3292 39.338 43.4887V43.5058C39.7591 43.6254 40.0105 43.9387 40.1392 44.4058C40.3204 45.0267 40.4491 45.4539 40.5602 45.6248H39.8292C39.7415 45.4995 39.6187 45.1178 39.4667 44.5653C39.303 43.9501 39.0106 43.7222 38.3732 43.6994H37.7066V45.6248H36.999V41.2386H36.9932ZM37.7007 43.2665H38.4258C39.1802 43.2665 39.6597 42.9304 39.6597 42.4235C39.6597 41.8481 39.1509 41.5975 38.4024 41.5918C38.0633 41.5918 37.8177 41.6203 37.7066 41.6431V43.2665H37.7007Z" fill="#1FA67D" stroke="#1FA67D" stroke-width="1.91937" stroke-miterlimit="10"></path><path id="Vector_11" d="M43.2671 41.1817V45.6305H42.5596V41.1817H43.2671Z" fill="#1FA67D" stroke="#1FA67D" stroke-width="1.91937" stroke-miterlimit="10"></path><path id="Vector_12" d="M45.7002 41.1817H46.4078V43.3235H46.4311C46.5773 43.1526 46.7235 42.9931 46.8639 42.8507L48.5363 41.1817H49.4134L47.4311 43.0672L49.5655 45.6248H48.7292L46.9282 43.4431L46.4078 43.933V45.6305H45.7002V41.1817Z" fill="#1FA67D" stroke="#1FA67D" stroke-width="1.91937" stroke-miterlimit="10"></path></g></g></g></svg>