<svg xmlns="http://www.w3.org/2000/svg" width="117" height="34" viewBox="0 0 117 34" fill="none"><path fill-rule="evenodd" clip-rule="evenodd" d="M10.0949 0.300207C7.17018 1.03625 4.43591 3.24248 2.36571 6.53698C0.971484 8.75569 -0.00726488 13.5277 0.156568 17.3077C0.342384 21.594 2.0033 25.9245 4.78422 29.3731C5.18354 29.8683 5.80693 30.4992 6.16957 30.775C7.66217 31.9104 10.2319 32.9783 12.6381 33.463C14.2669 33.7911 17.1533 33.9754 19.0338 33.8715L20.5514 33.7874L19.0945 33.286C14.6704 31.7627 11.6867 29.4607 10.2108 26.4318C9.38539 24.738 9.15974 23.7366 9.15598 21.7497C9.15246 19.9465 9.33827 18.8761 9.81823 17.9355C10.1604 17.265 11.1437 16.087 12.3298 14.9269L13.2909 13.9867L14.5535 13.771C16.1157 13.5044 17.0795 13.1851 18.4879 12.4677C19.9716 11.7121 21.6477 10.4374 23.0843 8.97215C24.1507 7.88458 24.2716 7.71735 24.2006 7.42778C23.9804 6.5305 22.4973 4.70173 21.1668 3.68703L20.4899 3.17068L18.8209 3.23191C16.4138 3.32027 14.7627 3.84622 12.7799 5.15637C11.6999 5.86985 9.94915 7.68793 9.03514 9.04526C7.52165 11.2925 6.09598 14.7036 5.41878 17.6979C5.26576 18.3746 5.08869 18.9284 5.02529 18.9284C4.86875 18.9284 5.02165 16.294 5.26212 14.8466C5.63107 12.6259 6.71937 9.99464 7.96032 8.32266C9.59477 6.1204 12.2408 4.05224 14.9052 2.89408C15.8784 2.47113 17.6209 1.88083 17.8962 1.88083C18.5879 1.88083 17.0259 1.05883 15.2695 0.498416C13.8886 0.0578196 11.4317 -0.0363024 10.0949 0.300207ZM23.2468 10.2636C23.1445 10.7698 22.1499 11.7882 21.2371 12.3218C20.156 12.9536 18.8773 13.4445 17.0059 13.946L15.4517 14.3625L14.7374 15.1048C14.3446 15.513 13.885 16.1451 13.7163 16.5093C13.4201 17.1491 13.4144 17.207 13.5502 18.2002C13.6274 18.7657 13.7553 20.2701 13.8344 21.5432L13.9779 23.8578L14.3037 23.344C14.7076 22.7069 14.9718 22.4706 15.5433 22.2344C16.1155 21.9982 16.9726 22.0014 17.8199 22.2433C20.1335 22.9036 20.574 22.8627 21.2997 21.9199C21.6107 21.5157 21.8842 21.2893 22.1173 21.2428C22.3252 21.2014 22.5456 21.0384 22.6599 20.8415C22.7658 20.6591 23.0044 20.4212 23.1903 20.3126C23.58 20.085 23.6147 19.918 23.317 19.7029C23.1177 19.5588 23.1188 19.5365 23.3359 19.2994C23.4623 19.1614 23.6465 19.0485 23.7453 19.0485C24.1275 19.0485 24.8547 18.7653 24.9227 18.59C24.9621 18.4887 24.7663 17.9615 24.4878 17.4185C23.8864 16.2459 23.905 16.0204 24.6638 15.2879L25.1832 14.7866L24.8596 14.1769C24.6028 13.6934 24.5177 13.3222 24.4478 12.3805C24.3593 11.1892 24.1735 10.538 23.8082 10.1389C23.5254 9.83005 23.3255 9.87435 23.2468 10.2636Z" fill="#E6218D"></path><path fill-rule="evenodd" clip-rule="evenodd" d="M31.267 19.3763C27.6841 20.012 24.9219 23.4594 25.2028 26.9447C25.3653 28.9606 25.9912 30.409 27.2223 31.6181C28.7481 33.1166 30.6862 33.8992 32.8644 33.8966C34.1132 33.895 34.0182 34.1271 34.0182 31.0779V28.405L33.5628 28.5656C32.9356 28.7868 32.4661 28.7708 31.8808 28.5081C31.2098 28.2067 30.8295 27.6514 30.7646 26.8779C30.6741 25.7992 31.2888 24.9597 32.3797 24.672C33.2961 24.4305 34.1407 24.7949 34.6328 25.6443C34.9266 26.1516 34.9293 26.1855 34.9659 29.8473L35.0028 33.5389H37.7395H40.4762L40.4248 29.307C40.3819 25.7853 40.3386 24.955 40.166 24.359C39.6659 22.6321 38.5871 21.1409 37.2796 20.3698C36.1061 19.6777 34.8644 19.3457 33.2895 19.3031C32.5213 19.2823 31.6112 19.3152 31.267 19.3763Z" fill="#05A1DC"></path><path fill-rule="evenodd" clip-rule="evenodd" d="M46.7473 19.7843C44.6075 20.2974 42.9181 22.0077 42.3985 24.187C42.2522 24.8 42.2147 25.8641 42.2132 29.4282L42.2114 33.9002H44.8743H47.537L47.5765 30.0885C47.6187 26.001 47.634 25.8978 48.2779 25.3218C48.5551 25.0736 49.1919 25.0083 49.7716 25.1686L50.1055 25.2609V22.5124V19.7639L49.726 19.6889C49.1137 19.5678 47.4245 19.6219 46.7473 19.7843Z" fill="#05A1DC"></path><path fill-rule="evenodd" clip-rule="evenodd" d="M56.1895 19.7619C55.2758 20.0699 53.9848 20.9375 53.3382 21.6781C53.0925 21.9596 52.7316 22.5005 52.5363 22.8802C51.8656 24.1836 51.8139 24.6799 51.849 29.4783L51.8809 33.8351H54.5528H57.2246L57.2854 29.5732C57.3476 25.2113 57.3833 24.8978 57.8384 24.7252C58.21 24.5842 58.7169 24.6518 59.0025 24.8804L59.2893 25.1097L59.35 29.4724L59.4107 33.8351L62.1129 33.8674L64.8151 33.8997L64.8133 29.4254C64.812 25.8849 64.7737 24.7926 64.6305 24.1919C64.1026 21.9784 62.5175 20.3154 60.3298 19.6802C59.3043 19.3824 57.1917 19.4241 56.1895 19.7619Z" fill="#E6218D"></path><path fill-rule="evenodd" clip-rule="evenodd" d="M72.7803 19.3267C69.2108 19.9819 66.7491 22.6686 66.5633 26.1121C66.4247 28.6787 67.3985 30.8487 69.3347 32.2874C71.9234 34.211 75.2203 34.4265 78.1154 32.8613C78.5781 32.6111 78.9745 32.3538 78.9961 32.2896C79.0179 32.2254 78.3504 31.3773 77.513 30.4052L75.9904 28.6377L75.4905 28.9956C74.9125 29.4095 74.0525 29.4824 73.4399 29.1692C71.7139 28.2869 71.6823 24.6326 73.3922 23.642C74.3486 23.088 75.5639 23.3488 76.0048 24.203C76.1349 24.4554 76.2416 24.7181 76.2416 24.7867C76.2416 24.8658 75.7322 24.9116 74.8497 24.9116H73.4576L73.3181 25.4218C73.1842 25.9115 73.2251 27.0527 73.3856 27.3095C73.4358 27.3898 74.897 27.4327 77.5792 27.4327H81.6957L81.7758 27.0104C81.9591 26.0451 81.5086 23.9461 80.8877 22.8707C79.84 21.0565 77.9225 19.7236 75.7764 19.3177C74.7065 19.1154 73.9189 19.1178 72.7803 19.3267Z" fill="#E6218D"></path><path fill-rule="evenodd" clip-rule="evenodd" d="M90.7784 19.738C89.5138 19.9943 88.3725 20.6073 87.6132 21.4381C86.9223 22.1941 86.5917 23.035 86.4561 24.3813C86.391 25.0273 86.2868 25.9052 86.2245 26.3319C86.0433 27.5735 85.4904 28.1168 84.2995 28.2235L83.5522 28.2905V31.0951V33.8996L84.0684 33.8972C85.0314 33.8929 87.1318 33.5601 87.8321 33.3009C89.2669 32.7699 90.6385 31.3854 91.2687 29.8323C91.4396 29.4111 91.6638 28.5197 91.7667 27.8515C92.0973 25.7089 92.3623 25.2866 93.4519 25.1652L93.9968 25.1045V22.3589V19.6133L92.6305 19.6265C91.8791 19.6337 91.0456 19.6839 90.7784 19.738Z" fill="#EB674E"></path><path fill-rule="evenodd" clip-rule="evenodd" d="M97.3496 13.83C96.7555 14.0969 96.1522 14.7535 95.953 15.35C95.8715 15.5942 95.8292 16.0856 95.8592 16.442C95.9637 17.6881 97.0291 18.5283 98.5045 18.5283C100.342 18.5283 101.459 17.236 101.129 15.4933C101.026 14.9553 100.281 14.1089 99.665 13.8326C99.0277 13.5464 97.9838 13.5453 97.3496 13.83ZM95.7669 19.999C95.735 20.0816 95.7231 23.2284 95.7403 26.9921L95.7719 33.8351L98.4741 33.8674L101.176 33.8997V26.8743V19.8489H98.5007C96.4721 19.8489 95.811 19.8852 95.7669 19.999Z" fill="#EB674E"></path><path fill-rule="evenodd" clip-rule="evenodd" d="M107.834 19.7057C106.853 19.9983 106.38 20.2316 105.658 20.7815C104.489 21.6702 103.431 23.3451 103.078 24.8647C102.865 25.7789 102.87 27.4904 103.087 28.4713C103.604 30.7983 105.223 32.7369 107.296 33.51C108.047 33.7903 109.397 33.9686 110.063 33.8755L110.638 33.795V31.1486V28.5022L110.135 28.6752C109.184 29.0029 108.281 28.6203 107.895 27.726C106.969 25.5852 109.479 23.649 110.898 25.4088C111.104 25.6637 111.282 25.8855 111.294 25.9016C111.305 25.9177 111.341 27.6375 111.373 29.7233L111.431 33.5158L113.785 33.5477L116.139 33.5796L116.137 29.6367C116.135 25.1379 116.075 24.602 115.402 23.0722C114.634 21.328 113.063 20.0362 111.237 19.6481C110.117 19.4102 108.747 19.4334 107.834 19.7057Z" fill="#EB674E"></path></svg>