<svg width="88" height="27" viewBox="0 0 88 27" fill="none" xmlns="http://www.w3.org/2000/svg">
<path d="M26.8613 0H22.8613V25H26.8613V0Z" fill="#030307"/>
<path d="M40.8613 17.025C40.8613 20.851 37.6443 21.156 36.6873 21.156C34.2963 21.156 33.8613 18.918 33.8613 17.568V8H29.8613V17.548C29.8613 19.918 30.6053 21.874 31.9093 23.178C33.0613 24.331 34.7873 24.961 36.6573 24.961C37.9833 24.961 39.8613 24.548 40.8613 23.635V25H44.8613V8H40.8613V17.025Z" fill="#030307"/>
<path d="M52.8613 2H48.8613V8H45.8613V12H48.8613V25H52.8613V12H55.8613V8H52.8613V2Z" fill="#030307"/>
<path d="M68.458 19.917C67.587 20.7 66.437 21.134 65.175 21.134C62.393 21.134 60.35 19.091 60.35 16.286C60.35 13.481 62.328 11.524 65.175 11.524C66.415 11.524 67.587 11.937 68.48 12.72L69.087 13.242L71.784 10.546L71.109 9.937C69.522 8.504 67.415 7.7 65.174 7.7C60.174 7.7 56.543 11.308 56.543 16.265C56.543 21.201 60.261 24.938 65.174 24.938C67.457 24.938 69.586 24.134 71.153 22.678L71.805 22.069L69.066 19.375L68.458 19.917Z" fill="#030307"/>
<path d="M86.0613 9.482C84.9093 8.33 83.5593 7.7 81.6893 7.7C80.3633 7.7 78.8613 8.113 77.8613 9.025V0H73.8613V25H77.8613V15.635C77.8613 11.809 80.5793 11.505 81.5363 11.505C83.9273 11.505 83.8613 13.744 83.8613 15.092V25H87.8613V15.113C87.8613 12.743 87.3663 10.787 86.0613 9.482Z" fill="#030307"/>
<path d="M65.0433 13.438C66.6413 13.438 67.9363 14.731 67.9363 16.33C67.9363 17.927 66.6413 19.222 65.0433 19.222C63.4463 19.222 62.1523 17.927 62.1523 16.33C62.1533 14.732 63.4473 13.438 65.0433 13.438Z" fill="#FF3D2E"/>
<path d="M17.261 18.721C15.74 20.286 13.674 21.134 11.5 21.134C7.044 21.134 3.804 17.634 3.804 12.83C3.804 8.004 7.044 4.504 11.5 4.504C13.653 4.504 15.696 5.351 17.24 6.895L17.848 7.504L20.522 4.83L19.935 4.221C17.718 1.938 14.718 0.699997 11.5 0.699997C4.935 0.699997 0 5.917 0 12.851C0 19.764 4.957 24.96 11.5 24.96C14.74 24.96 17.74 23.7 19.957 21.417L20.544 20.808L17.892 18.091L17.261 18.721Z" fill="#030307"/>
</svg>
