<svg width="86" height="27" viewBox="0 0 86 27" fill="none" xmlns="http://www.w3.org/2000/svg">
<g clip-path="url(#clip0_402_516)">
<path d="M10.7577 9.63409V12.5182H17.7041C17.5197 14.1136 16.9664 15.3409 16.1058 16.1386C15.1222 17.1205 13.5239 18.225 10.7577 18.225C6.51608 18.225 3.19657 14.7886 3.19657 10.5545C3.19657 6.32046 6.45461 2.88409 10.7577 2.88409C13.0322 2.88409 14.7534 3.80455 15.9828 4.97045L18.0114 2.94545C16.2902 1.28864 13.9543 0 10.7577 0C4.9178 0 0 4.725 0 10.5545C0 16.3841 4.9178 21.1091 10.7577 21.1091C13.8928 21.1091 16.2902 20.0659 18.1344 18.1636C20.04 16.2614 20.6548 13.5614 20.6548 11.4136C20.6548 10.7386 20.5933 10.125 20.5318 9.63409H10.7577Z" fill="#4285F4"/>
<path d="M29.2609 7.24091C25.5111 7.24091 22.376 10.125 22.376 14.0523C22.376 17.9795 25.4496 20.8636 29.2609 20.8636C33.0722 20.8636 36.1458 18.0409 36.1458 14.1136C36.1458 10.125 33.0722 7.24091 29.2609 7.24091ZM29.2609 18.225C27.1708 18.225 25.3881 16.5068 25.3881 14.1136C25.3881 11.6591 27.1708 10.0023 29.2609 10.0023C31.351 10.0023 33.1337 11.6591 33.1337 14.1136C33.1337 16.5068 31.351 18.225 29.2609 18.225Z" fill="#EA4335"/>
<path d="M62.8861 8.775H62.7632C62.087 7.97727 60.7961 7.24091 59.1363 7.24091C55.6938 7.24091 52.7432 10.1864 52.7432 14.0523C52.7432 17.8568 55.6938 20.8636 59.1363 20.8636C60.7961 20.8636 62.087 20.1273 62.7632 19.3295H62.8861V20.3114C62.8861 22.8886 61.4723 24.3 59.2592 24.3C57.4151 24.3 56.3086 23.0114 55.8168 21.8454L53.2349 22.95C53.9726 24.7295 56.0012 27 59.3207 27C62.8246 27 65.8368 24.9136 65.8368 19.8818V7.60909H63.0091V8.775H62.8861ZM59.4437 18.225C57.3536 18.225 55.8168 16.4455 55.8168 14.1136C55.8168 11.7205 57.4151 10.0023 59.4437 10.0023C61.4723 10.0023 63.0705 11.7818 63.0705 14.175C63.132 16.5068 61.5337 18.225 59.4437 18.225Z" fill="#4285F4"/>
<path d="M44.5675 7.24091C40.8177 7.24091 37.6826 10.125 37.6826 14.0523C37.6826 17.9795 40.7562 20.8636 44.5675 20.8636C48.3788 20.8636 51.4525 18.0409 51.4525 14.1136C51.4525 10.125 48.3788 7.24091 44.5675 7.24091ZM44.5675 18.225C42.4775 18.225 40.6948 16.5068 40.6948 14.1136C40.6948 11.6591 42.4775 10.0023 44.5675 10.0023C46.6576 10.0023 48.4403 11.6591 48.4403 14.1136C48.4403 16.5068 46.6576 18.225 44.5675 18.225Z" fill="#FBBC05"/>
<path d="M68.1113 0.306824H71.062V20.925H68.1113V0.306824Z" fill="#34A853"/>
<path d="M80.1604 18.225C78.6236 18.225 77.5786 17.55 76.8409 16.1386L86.0003 12.3955L85.6929 11.5977C85.1397 10.0636 83.357 7.24091 79.853 7.24091C76.3491 7.24091 73.3984 10.0023 73.3984 14.0523C73.3984 17.8568 76.2876 20.8636 80.1604 20.8636C83.2955 20.8636 85.0782 18.9614 85.8773 17.8568L83.5414 16.3227C82.7423 17.4886 81.6972 18.225 80.1604 18.225ZM79.976 9.81818C81.2054 9.81818 82.2505 10.4318 82.5578 11.2909L76.4106 13.8682C76.3491 11.0455 78.4392 9.81818 79.976 9.81818Z" fill="#EA4335"/>
</g>
<defs>
<clipPath id="clip0_402_516">
<rect width="86" height="27" fill="white"/>
</clipPath>
</defs>
</svg>
