<svg xmlns="http://www.w3.org/2000/svg" width="157" height="32" viewBox="0 0 157 32" fill="none"><path d="M11.435 6.63887L7.32252 6.64227C7.19008 6.64227 7.03387 6.61849 6.94217 6.52341L5.53965 5.12088C5.44796 5.02919 5.42079 4.87298 5.42079 4.74393L5.414 3.02219C5.4106 2.87616 5.30194 2.75391 5.15591 2.75391L2.89421 2.7607C2.74819 2.7607 2.63273 2.87616 2.63273 3.02219L2.61914 5.29068C2.61914 5.4367 2.7346 5.55556 2.88063 5.55556L4.61935 5.54537C4.75179 5.54537 4.90121 5.57594 4.9963 5.66763L6.39543 7.06676C6.49052 7.16184 6.51769 7.31126 6.52108 7.4437L6.51768 11.5596C6.51768 11.8381 6.73842 12.069 7.01689 12.069H11.418C11.6931 12.069 11.9172 11.8483 11.9206 11.5698L11.9444 7.14487C11.9376 6.8664 11.7135 6.64226 11.435 6.63887Z" fill="#007AFF"></path><path d="M9.48176 2.12597L7.17931 2.17011C7.10799 2.17011 6.97894 2.19728 6.928 2.14634L6.15712 1.37546C6.10618 1.32452 6.13335 1.19887 6.13335 1.12416L6.15034 0.156313C6.15034 0.0782064 6.0994 -0.00329334 6.01789 0.000102599H4.78177C4.70366 0.000102599 4.64254 0.0612256 4.64254 0.139332L4.63574 1.38225C4.63574 1.46376 4.70027 1.52828 4.78177 1.52828L5.91262 1.54525C6.00431 1.54525 6.096 1.586 6.16052 1.65053L6.79217 2.28218C6.84311 2.33312 6.81933 2.45536 6.82273 2.53007L6.80236 4.80876C6.80236 4.96158 6.91442 5.09742 7.06724 5.09742L9.47836 5.10081C9.62778 5.10081 9.75003 4.97856 9.75003 4.82913L9.76022 2.40104C9.75682 2.25162 9.63457 2.12936 9.48176 2.12597Z" fill="#007AFF"></path><path d="M4.84601 6.76073L2.54356 6.80488C2.47224 6.80488 2.3432 6.83205 2.29226 6.78111L1.52138 6.01022C1.47044 5.95928 1.49761 5.83364 1.49761 5.75892L1.51459 4.79108C1.51459 4.71297 1.46365 4.63147 1.38215 4.63487H0.146023C0.0679164 4.63487 0.00678816 4.696 0.00678816 4.7741L0 6.01702C0 6.09852 0.0645204 6.15965 0.146023 6.16304L1.15462 6.15964C1.22593 6.15964 1.38215 6.14267 1.43309 6.19361L2.15642 6.91694C2.20736 6.96788 2.18359 7.09014 2.18698 7.16485L2.16661 9.44353C2.16661 9.59634 2.27867 9.73218 2.43149 9.73218L4.84261 9.73557C4.99543 9.73557 5.11429 9.61672 5.11429 9.4639L5.12448 7.0358C5.12108 6.88638 4.99883 6.76413 4.84601 6.76073Z" fill="#007AFF"></path><path d="M1.95627 1.28808C1.95627 1.16243 1.85439 1.06055 1.72874 1.06055H0.485828C0.360178 1.06055 0.258301 1.16243 0.258301 1.28808V2.53099C0.258301 2.65664 0.360178 2.75852 0.485828 2.75852H1.72874C1.85439 2.75852 1.95627 2.65664 1.95627 2.53099V1.28808Z" fill="#007AFF"></path><path d="M6.66943 16.3279V31.4365H15.234V23.9858C15.234 22.1622 17.6078 21.4524 18.6062 22.9806C18.6096 22.9806 13.244 14.3889 6.66943 16.3279Z" fill="#080829"></path><path d="M23.4256 15.5374L33.3621 0.605469H23.4493L18.6271 8.23276C17.6423 9.7881 15.2379 9.09193 15.2379 7.25133V0.605469H7.00616V0.629238C6.99937 0.897517 7.11144 1.15561 7.3084 1.33559L9.492 1.28126C10.1169 1.28465 10.6228 1.79066 10.6194 2.41211L10.6093 4.83681C10.6059 5.23753 10.3953 5.58392 10.0795 5.78428L11.4447 5.78088C12.1986 5.78428 12.8064 6.39895 12.803 7.14606L12.7793 11.571C12.7759 12.3147 12.168 12.9701 11.4209 12.9701L7.01975 13.0176C6.91108 13.0176 6.8941 13.0007 6.67676 12.9769V16.3253C13.2513 14.3828 18.6135 22.9745 18.6135 22.9745L24.1489 31.4338H34.2926L23.4256 15.5374Z" fill="#007AFF"></path><path opacity="0.22" d="M6.66943 16.3279C6.66943 16.3279 11.8924 16.0325 15.4276 23.1504C16.0117 21.9856 17.781 21.7139 18.6062 22.9806C18.6096 22.9806 13.244 14.3889 6.66943 16.3279Z" fill="black"></path><path d="M57.2557 17.9645V31.2766H49.642V18.8508C49.642 16.3005 48.7455 15.0032 46.7589 15.0032C44.4564 15.0032 43.02 16.6367 43.02 19.4757V31.28H35.4062V1.19531H43.02V10.6326C44.6466 9.32181 46.7181 8.52376 48.9221 8.52376C53.9956 8.51697 57.2557 12.2355 57.2557 17.9645Z" fill="#007AFF"></path><path d="M84.5149 9.14947V31.2537H78.6298L77.9778 29.6915C76.1677 31.1586 73.8755 32.0008 71.3081 32.0008C64.5502 32.0008 59.7178 27.0699 59.7178 20.1999C59.7178 13.3536 64.5502 8.48047 71.3081 8.48047C73.9094 8.48047 76.2356 9.34983 78.0627 10.8542L78.8403 9.14607H84.5149V9.14947ZM77.2748 20.2202C77.2748 17.3507 75.1795 15.1976 72.3269 15.1976C69.4573 15.1976 67.379 17.3541 67.379 20.2202C67.379 23.1068 69.4743 25.2598 72.3269 25.2598C75.1795 25.2598 77.2748 23.1034 77.2748 20.2202Z" fill="#007AFF"></path><path d="M110.341 17.7973V31.2758H102.727V18.85C102.727 16.2759 101.763 15.0024 99.8443 15.0024C97.4706 15.0024 96.1054 16.6596 96.1054 19.4748V31.2791H88.4917V9.17495H93.8335L94.8795 11.4536C96.5265 9.61981 98.9784 8.51953 101.838 8.51953C106.972 8.51614 110.341 12.1668 110.341 17.7973Z" fill="#007AFF"></path><path d="M122.514 2.62109H130.511V31.2761H122.514V2.62109Z" fill="#080829"></path><path d="M156.727 9.7288H148.944V31.2761H141.014V9.7288H133.231V2.62109H156.727V9.7288Z" fill="#080829"></path></svg>