<svg xmlns="http://www.w3.org/2000/svg" width="123" height="32" viewBox="0 0 123 32" fill="none"><g id="base" clip-path="url(#clip0_922_2943)"><path id="Vector" d="M69.4589 31.4368H63.0273V0.0426636H68.9378L69.4589 9.4656V31.4347V31.4368Z" fill="#151515"></path><path id="Vector_2" d="M94.7112 27.3536C94.7112 29.3504 94.8863 31.4347 94.8863 31.4347H88.4548L88.3673 28.3072H88.0192C86.6291 30.2165 84.8035 31.9552 81.6731 31.9552C78.2844 31.9552 74.8936 30.1312 74.8936 24.0533V9.46561H81.4126V24.1408C81.4126 26.2677 82.4546 27.3536 83.9771 27.3536C86.0633 27.3536 87.6284 25.2693 88.1922 22.2741V9.46561H94.7112V27.3536Z" fill="#151515"></path><path id="Vector_3" d="M107.015 9.4656C107.015 10.6816 106.972 11.9403 106.972 11.9403H107.32C108.755 10.0309 110.666 9.0304 113.1 9.0304C118.272 9.0304 122.141 13.1989 122.141 20.3627C122.141 27.5264 118.62 32 112.754 32C110.408 32 108.148 30.8288 106.887 28.7445H106.538L106.451 31.4368H100.41L100.583 27.5733V0.0426636H107.015V9.4656ZM111.535 13.3739C108.928 13.3739 107.232 16.1963 107.015 18.0203V23.0571C107.232 24.9664 108.883 27.5733 111.447 27.5733C114.23 27.5733 115.836 24.7509 115.836 20.3648C115.836 16.3691 114.27 13.3739 111.533 13.3739H111.535Z" fill="#151515"></path><path id="Vector_4" d="M42.2041 13.3739L51.3752 0H59.2416L48.027 14.8053L60.1961 31.4368H51.9389L42.2041 16.7595V13.3739Z" fill="#151515"></path><g id="Group"><path id="Vector_5" d="M20.9597 6.93973C19.2728 6.93973 17.8123 8.17279 17.5859 10.4875L24.1562 10.4363C24.1819 9.22879 23.5263 6.93973 20.9576 6.93973H20.9597Z" fill="#151515"></path><path id="Vector_6" d="M21.6543 23.3387H8.65039V31.4347H21.6543V23.3387Z" fill="#151515"></path><path id="Vector_7" d="M6.43138 0.0426636V15.9445L13.8836 15.9189V18.1824H3.93736V0.0426636H0.138672V31.4368H6.42071V23.3408H3.77081V21.1136H26.548V23.3408H23.8831V31.4368H38.0743V0.0426636H6.43138ZM21.1863 16.7253C22.7472 16.7253 23.9045 15.7184 24.2077 14.2848H26.5245C26.2469 16.3733 24.3593 18.5621 21.0603 18.5621C17.5093 18.5621 15.1434 15.8699 15.1434 11.7696C15.1434 8.22186 17.3598 5.2288 20.9087 5.2288C25.5423 5.2288 26.8256 9.2288 26.4989 12.1963H17.4858C17.5114 14.8117 18.7691 16.7253 21.1863 16.7253Z" fill="#151515"></path></g></g><defs><clipPath id="clip0_922_2943"><rect width="122" height="32" fill="white" transform="translate(0.138672)"></rect></clipPath></defs></svg>