<svg xmlns="http://www.w3.org/2000/svg" width="156" height="23" viewBox="0 0 156 23" fill="none"><path d="M155.808 22.095H151.487C151.427 21.6991 151.373 21.3477 151.306 20.9139C151.121 21.0007 150.983 21.0385 150.876 21.1186C148.077 23.2428 144.39 23.0426 141.829 20.627C138.343 17.3373 138.385 11.3094 141.918 8.06865C144.428 5.76651 148.099 5.573 150.805 7.59933C150.918 7.68608 151.045 7.75504 151.242 7.88405C151.545 7.04549 151.355 6.23585 151.389 5.45067C151.425 4.63658 151.396 3.82027 151.396 3.00395V0.488281H155.774C156.042 1.26678 156.089 20.9517 155.805 22.095H155.808ZM147.617 10.5487C145.387 10.5421 143.857 12.0635 143.823 14.3211C143.79 16.63 145.331 18.2314 147.59 18.2359C149.85 18.2403 151.409 16.6433 151.384 14.3434C151.36 12.0746 149.848 10.5532 147.615 10.5465L147.617 10.5487Z" fill="#303053"></path><path d="M136.411 6.69285V22.0738H131.997C131.93 21.7491 131.859 21.4021 131.769 20.9706C131.607 21.0462 131.446 21.0907 131.321 21.1819C128.573 23.2393 124.906 23.0258 122.363 20.6503C118.96 17.4718 118.862 11.6397 122.156 8.34105C124.717 5.77645 128.428 5.48951 131.352 7.62928C131.462 7.70935 131.593 7.76273 131.781 7.86283C131.845 7.43576 131.896 7.08655 131.957 6.69285H136.411ZM128.091 10.5498C125.847 10.5587 124.366 12.0667 124.357 14.3578C124.349 16.7088 125.847 18.248 128.134 18.2369C130.409 18.228 131.892 16.6688 131.868 14.3133C131.845 12.0356 130.346 10.5409 128.089 10.5498H128.091Z" fill="#303053"></path><path d="M73.248 22.0866V0.46875H77.7737V7.94237C78.0971 7.71105 78.2109 7.63542 78.3179 7.5509C80.2428 6.01614 82.3886 5.8026 84.6101 6.67897C86.8607 7.56646 87.9202 9.46823 88.0183 11.7415C88.1655 15.1424 88.0562 18.5545 88.0562 22.0533H83.4837C83.4837 21.6484 83.4837 21.2547 83.4837 20.861C83.4837 18.3409 83.5038 15.8186 83.4748 13.2985C83.4503 11.1053 81.7774 9.91754 79.6919 10.5537C78.6079 10.8851 78.0503 11.6569 77.8607 12.7179C77.7759 13.1895 77.7759 13.6766 77.7737 14.157C77.7648 16.3813 77.7737 18.6056 77.767 20.8299C77.767 21.228 77.7313 21.6284 77.7112 22.0844H73.248V22.0866Z" fill="#303053"></path><path d="M117.664 16.1916H106.851C107.105 18.5849 110.683 19.2188 113.52 17.3793C114.642 18.0222 115.819 18.6983 117.051 19.4034C116.6 20.2131 115.973 20.7291 115.306 21.1896C112.19 23.3338 107.094 22.9801 104.297 20.4377C101.932 18.2891 101.103 14.6212 102.256 11.4205C103.358 8.36428 106.137 6.3602 109.483 6.2134C116.158 5.91757 118.755 12.0744 117.666 16.1938L117.664 16.1916ZM113.292 12.7484C112.67 10.8955 111.399 10.1081 109.545 10.2905C107.899 10.4529 106.893 11.3048 106.71 12.7484H113.292Z" fill="#303053"></path><path d="M0.0169617 11.665C-0.322072 5.69057 4.46454 0.376728 10.5047 0.0208418C16.8482 -0.352839 22.1969 4.34264 22.5605 10.544C22.9419 17.0322 17.9813 22.3127 11.7382 22.5284C5.22291 22.7553 0.157482 17.7395 0.0169617 11.665ZM11.2541 20.4865C16.5092 20.4954 20.4571 16.5451 20.4593 11.278C20.4616 6.02866 16.4712 2.02048 11.2631 2.03828C6.11064 2.05829 2.11139 6.05979 2.09354 11.2135C2.0757 16.4584 6.04596 20.4776 11.2541 20.4865Z" fill="#303053"></path><path d="M62.5462 6.56973V3.6826C64.0941 3.21995 65.5618 2.77955 67.1744 2.29688V6.57863H70.3573C70.4555 8.11784 70.4265 9.52803 70.3707 11.0294H67.3439C67.2748 11.3119 67.1833 11.5188 67.1811 11.7256C67.1677 13.2804 67.1521 14.8352 67.1811 16.3878C67.199 17.4843 67.6183 17.9025 68.7402 17.9959C69.2465 18.0382 69.7573 18.0026 70.3328 18.0026V22.1242C68.8161 22.2999 67.3841 22.3311 65.9566 22.0063C64.0651 21.577 62.9923 20.3537 62.767 18.4764C62.6064 17.1218 62.6198 15.7471 62.5863 14.3792C62.5596 13.316 62.5819 12.2528 62.5819 11.1006C61.7276 11.0583 61.0027 11.025 60.1841 10.985V6.70763C60.9224 6.66537 61.6785 6.62089 62.5462 6.57196V6.56973Z" fill="#303053"></path><path d="M58.266 15.3744H44.8028C44.6935 17.3362 46.1076 19.2847 48.153 20.121C51.0035 21.291 53.7983 20.5814 56.0288 18.0635C56.5351 18.3571 57.0593 18.6641 57.7329 19.0578C57.1686 19.6628 56.7403 20.2188 56.2162 20.6637C53.031 23.3684 47.7827 23.0882 44.8184 20.1432C42.2243 17.5653 42.1507 13.1968 43.4355 10.6099C44.9411 7.57599 48.1909 5.86995 51.6615 6.31926C55.8883 6.86866 59.0489 11.077 58.266 15.3744ZM56.2273 13.4904C56.3255 10.4097 53.5507 8.21214 50.9433 8.14986C47.611 8.06979 44.7961 10.4075 44.7693 13.4926C48.5924 13.4926 52.4132 13.4993 56.2296 13.4882L56.2273 13.4904Z" fill="#303053"></path><path d="M91.4934 22.068V6.70479H95.912C95.9566 7.44326 95.999 8.12389 96.057 9.08478C97.1812 7.30535 98.5574 6.39339 100.614 6.38672C100.71 8.06828 100.692 9.70536 100.618 11.4069C100.217 11.4381 99.8934 11.4603 99.57 11.4848C97.3975 11.6472 96.1328 12.8349 96.0236 15.0014C95.9299 16.8876 95.9879 18.7805 95.9789 20.6711C95.9789 21.1093 95.9789 21.5475 95.9789 22.068H91.4912H91.4934Z" fill="#303053"></path><path d="M39.3223 22.0889H37.5736C37.5513 21.6685 37.5112 21.2749 37.5112 20.8834C37.5045 18.3277 37.5156 15.7742 37.5022 13.2185C37.5 12.6646 37.471 12.1063 37.384 11.5614C37.0718 9.58397 35.8004 8.39398 33.8219 8.18267C30.7372 7.85125 28.364 9.67962 28.1699 12.7692C28.0026 15.425 28.0985 18.0986 28.074 20.7633C28.0695 21.197 28.0361 21.6307 28.0138 22.0978H26.2941C26.0398 21.2103 25.9907 8.00028 26.2338 6.72353C26.497 6.69907 26.7825 6.65236 27.068 6.64792C27.3558 6.64347 27.6457 6.68127 28.0138 6.70574C28.0517 7.36413 28.0851 7.98026 28.1231 8.64532C28.6182 8.61641 28.7409 8.21158 28.9751 7.97358C31.326 5.58692 35.7714 5.69147 37.9773 8.19157C38.9565 9.3015 39.3982 10.6361 39.4205 12.0707C39.4718 15.2537 39.4428 18.4389 39.4383 21.6218C39.4383 21.762 39.3714 21.9021 39.3223 22.0934V22.0889Z" fill="#303053"></path></svg>