<svg xmlns="http://www.w3.org/2000/svg" width="314" height="48" viewBox="0 0 314 48" fill="none"><g clip-path="url(#clip0_2025_8610)"><path d="M94.1508 47.997L178.48 40.7461H86.8394L94.1508 47.997Z" fill="#775FFB"></path><path d="M95.3282 11.1861V12.3016C93.6553 11.1861 92.1063 10.5664 89.9996 10.5664C83.5556 10.5664 78.7227 16.4539 78.7227 23.6427C78.7227 30.8316 83.6176 36.719 89.9996 36.719C92.1063 36.719 93.5933 36.0993 95.3282 34.9838V36.0993H100.967V11.2481H95.3282V11.1861ZM89.9996 30.7077C86.8396 30.7077 84.485 27.609 84.485 23.6427C84.485 19.6765 86.7776 16.5778 89.9996 16.5778C93.1596 16.5778 95.3902 19.6765 95.3902 23.6427C95.3902 27.547 93.1596 30.7077 89.9996 30.7077Z" fill="#775FFB"></path><path d="M140.56 11.1855V25.8112C140.56 28.538 138.701 30.893 135.912 30.893C133.186 30.893 131.265 28.6 131.265 25.8112V11.1855H125.627V25.8112C125.627 31.8226 129.716 36.6565 135.727 36.6565C138.515 36.6565 140.498 35.1072 140.498 35.1072V36.0367H146.136V11.1855H140.56Z" fill="#775FFB"></path><path d="M193.165 36.0373V21.4117C193.165 18.6849 195.024 16.3299 197.812 16.3299C200.538 16.3299 202.459 18.6229 202.459 21.4117V36.0373H208.097V21.4117C208.097 15.4003 204.008 10.5664 197.998 10.5664C195.21 10.5664 193.227 12.1157 193.227 12.1157V11.1861H187.588V36.0373H193.165Z" fill="#775FFB"></path><path d="M62.4268 36.0363V26.3685H66.5782L73.8277 36.0363H81.201L72.4645 24.3853C75.1908 22.4022 76.9877 19.2416 76.9877 15.6471C76.9877 9.75967 72.1547 4.92578 66.2684 4.92578H56.5405V35.9743H62.4268V36.0363ZM62.4268 10.8752H66.2684C68.9328 10.8752 71.1014 13.0442 71.1014 15.7091C71.1014 18.3739 68.9328 20.543 66.2684 20.543H62.4268V10.8752Z" fill="#775FFB"></path><path d="M161.379 30.1493C160.883 30.5212 160.202 30.7691 159.52 30.7691C158.591 30.7691 156.856 30.0874 156.856 27.7324V17.073H161.689V11.1856H156.856V4.98828H151.217V11.1856H148.243V17.073H151.217V27.7944C151.217 33.3719 155.431 36.6565 159.582 36.6565C161.131 36.6565 163.3 36.1607 165.097 35.1072L161.379 30.1493Z" fill="#775FFB"></path><path d="M116.767 11.1858L110.013 19.862V2.94336H104.188V36.037H110.013V25.8734L118.316 36.037H126.247L114.97 22.8367L124.698 11.1858H116.767Z" fill="#775FFB"></path><path d="M174.453 10.5664C167.947 10.5664 163.238 16.3299 163.238 23.6427C163.238 31.3274 169.124 36.719 175.01 36.719C177.985 36.719 181.826 35.7275 184.986 31.1415L180.029 28.2907C176.188 33.9922 169.744 31.0795 169 25.378H185.234C186.659 16.4538 180.835 10.5664 174.453 10.5664ZM179.348 20.4201H169.186C170.363 14.5947 178.294 14.2228 179.348 20.4201Z" fill="#775FFB"></path><path d="M226.19 33.9303L217.082 11.2482C216.958 10.9383 216.834 10.6284 216.772 10.3186C216.71 10.0087 216.648 9.63688 216.648 9.32701C216.648 8.33544 216.958 7.59177 217.639 6.91006C218.321 6.29033 219.126 5.98047 220.18 5.98047C220.923 5.98047 221.543 6.22835 221.977 6.66216C222.472 7.09597 222.906 7.83965 223.278 8.89319L229.474 25.5639L235.422 9.14108C235.794 7.96359 236.29 7.15794 236.785 6.66216C237.281 6.22835 237.963 5.98047 238.768 5.98047C239.821 5.98047 240.627 6.22835 241.185 6.78611C241.742 7.34387 242.052 8.08755 242.052 9.07912C242.052 9.45096 241.99 9.8228 241.928 10.2566C241.866 10.6284 241.742 11.0623 241.618 11.4341L232.82 33.6824C232.448 34.674 231.952 35.4177 231.457 35.8515C230.899 36.2853 230.217 36.5332 229.412 36.5332C228.606 36.5332 227.987 36.3473 227.491 35.9135C227.057 35.4796 226.624 34.8599 226.19 33.9303Z" fill="#775FFB"></path><path d="M250.169 31.9469C250.169 33.4962 249.921 34.6117 249.425 35.3554C248.93 36.0991 248.124 36.4709 247.133 36.4709C246.079 36.4709 245.274 36.0991 244.778 35.3554C244.283 34.6117 244.035 33.4962 244.035 31.9469V19.4283C244.035 17.879 244.283 16.7635 244.778 16.0198C245.274 15.2761 246.079 14.9043 247.133 14.9043C248.186 14.9043 248.93 15.2761 249.425 16.0198C249.921 16.7635 250.169 17.879 250.169 19.4283V31.9469Z" fill="#775FFB"></path><path d="M259.587 15.0905C260.33 14.4708 261.136 13.975 262.003 13.6651C262.871 13.3553 263.8 13.1693 264.792 13.1693C267.642 13.1693 270.058 14.2848 272.041 16.5778C274.024 18.8089 274.953 21.6596 274.953 25.0682C274.953 28.2908 273.962 31.0176 271.917 33.2486C269.934 35.4796 267.518 36.6571 264.792 36.6571C263.676 36.6571 262.685 36.4712 261.756 36.0994C260.826 35.7275 260.083 35.1698 259.401 34.4261C258.967 35.1078 258.534 35.6656 257.976 36.0374C257.48 36.4092 256.861 36.5952 256.241 36.5952C255.126 36.5952 254.32 36.2233 253.763 35.4177C253.205 34.612 252.957 33.4345 252.957 31.7612V10.8144C252.957 9.20306 253.205 7.9636 253.763 7.15795C254.32 6.3523 255.126 5.98047 256.241 5.98047C257.356 5.98047 258.224 6.3523 258.719 7.15795C259.277 7.9636 259.525 9.14109 259.525 10.8144V15.0905H259.587ZM259.091 24.9442C259.091 26.7414 259.525 28.2288 260.392 29.2823C261.26 30.3978 262.437 30.9556 263.8 30.9556C265.163 30.9556 266.341 30.3978 267.208 29.2823C268.076 28.1668 268.571 26.7414 268.571 24.9442C268.571 23.147 268.137 21.6597 267.27 20.5441C266.403 19.4286 265.225 18.8709 263.862 18.8709C262.437 18.8709 261.322 19.4286 260.454 20.5441C259.525 21.6597 259.091 23.147 259.091 24.9442Z" fill="#775FFB"></path><path d="M282.389 26.8036C282.513 28.0431 283.442 29.0347 284.31 29.7164C285.177 30.3981 286.354 30.7699 287.779 30.7699C289.019 30.7699 290.382 30.3981 291.931 29.7164C293.48 28.9727 294.409 28.6628 294.719 28.6628C295.525 28.6628 296.144 28.9107 296.64 29.4065C297.136 29.9023 297.383 30.522 297.383 31.2657C297.383 32.6911 296.392 33.9305 294.409 35.108C292.427 36.2235 290.072 36.8433 287.408 36.8433C284.124 36.8433 281.397 35.7277 279.229 33.4967C277.06 31.2657 275.945 28.4769 275.945 25.1304C275.945 21.7838 276.998 18.933 279.105 16.702C281.212 14.471 283.876 13.3555 287.036 13.3555C290.072 13.3555 292.674 14.409 294.719 16.5161C296.764 18.6232 297.817 21.2261 297.817 24.2627C297.817 25.2543 297.569 25.936 297.136 26.3698C296.702 26.7417 295.834 26.9895 294.533 26.9895H282.389V26.8036ZM282.141 22.8993H291.869C291.807 21.6599 291.311 20.4204 290.382 19.5528C289.452 18.7471 288.399 18.3133 287.16 18.3133C285.921 18.3133 284.743 18.6851 283.876 19.4908C282.946 20.2964 282.389 21.5979 282.141 22.8993Z" fill="#775FFB"></path><path d="M299.676 31.638V18.3138C299.676 16.7025 299.924 15.4631 300.481 14.7194C301.039 13.9137 301.844 13.5419 302.96 13.5419C303.641 13.5419 304.199 13.7278 304.757 14.0377C305.252 14.4095 305.748 14.9053 306.12 15.649C306.801 14.9053 307.545 14.3476 308.288 13.9757C309.032 13.6039 309.837 13.418 310.581 13.418C311.51 13.418 312.254 13.7278 312.935 14.4095C313.617 15.0293 313.927 15.8349 313.927 16.7025C313.927 18.004 312.688 19.1195 310.271 20.0491C309.404 20.3589 308.722 20.6068 308.288 20.8547C307.483 21.2266 306.925 21.6604 306.615 22.1562C306.368 22.6519 306.182 23.5196 306.182 24.759V31.638C306.182 33.2493 305.934 34.4888 305.376 35.2945C304.819 36.1001 304.013 36.4719 302.898 36.4719C301.782 36.4719 300.977 36.1001 300.419 35.2945C299.986 34.4888 299.676 33.2493 299.676 31.638Z" fill="#775FFB"></path><path d="M243.787 9.38912C243.787 8.45949 244.159 7.65379 244.84 6.97206C245.522 6.29033 246.327 5.98047 247.319 5.98047C248.248 5.98047 249.054 6.29033 249.735 6.97206C250.417 7.65379 250.727 8.45949 250.727 9.38912C250.727 10.3188 250.417 11.1864 249.735 11.8062C249.054 12.4879 248.248 12.7978 247.319 12.7978C246.327 12.7978 245.522 12.4879 244.84 11.8062C244.097 11.1864 243.787 10.3807 243.787 9.38912Z" fill="#775FFB"></path><path d="M39.7495 4.61701C38.5722 3.56347 33.8632 0.0929816 23.2679 0.0310085C23.2679 0.0310085 10.8137 -0.712676 4.74149 4.8649C1.33363 8.27342 0.156368 13.1693 0.0324456 19.3046C-0.0914766 25.44 -0.277344 36.905 10.8137 40.0656V44.8375C10.8137 44.8375 10.7517 46.7587 11.9909 47.1305C13.54 47.6263 14.4074 46.139 15.8945 44.5896C16.7 43.722 17.8153 42.4826 18.6208 41.491C26.18 42.1107 32.0044 40.6853 32.6859 40.4374C34.235 39.9417 42.8476 38.8262 44.2727 27.3611C45.7597 15.4623 43.6531 7.96356 39.7495 4.61701ZM41.0507 26.4315C39.8734 36.0374 32.8718 36.6571 31.5707 37.0289C31.013 37.2148 25.9322 38.4543 19.4882 38.0825C19.4882 38.0825 14.7172 43.846 13.1682 45.3953C12.9204 45.6432 12.6725 45.7051 12.4866 45.7051C12.2388 45.6432 12.1768 45.3333 12.1768 44.8995C12.1768 44.2798 12.2388 36.967 12.2388 36.967C2.88266 34.3641 3.44031 24.5723 3.50227 19.4286C3.62619 14.2848 4.55562 10.1326 7.40583 7.28185C12.5486 2.63387 23.1439 3.31557 23.1439 3.31557C32.0663 3.37755 36.3417 6.04239 37.333 6.97198C40.555 9.82274 42.228 16.5778 41.0507 26.4315Z" fill="#775FFB"></path><path d="M27.6051 19.0564C27.4812 16.7014 26.3039 15.4618 24.0112 15.3379" stroke="#775FFB" stroke-width="1.92693" stroke-linecap="round" stroke-linejoin="round"></path><path d="M30.7031 20.0481C30.7651 17.8789 30.0835 16.0197 28.7823 14.5943C27.4191 13.1068 25.5602 12.3012 23.2056 12.1152" stroke="#775FFB" stroke-width="1.92693" stroke-linecap="round" stroke-linejoin="round"></path><path d="M33.8014 21.2892C33.8014 17.5087 32.6241 14.5339 30.3934 12.3648C28.1627 10.1956 25.3743 9.08008 22.0283 9.08008" stroke="#775FFB" stroke-width="1.92693" stroke-linecap="round" stroke-linejoin="round"></path><path d="M24.1349 27.052C24.1349 27.052 25.0023 27.114 25.4361 26.5563L26.3035 25.4407C26.7373 24.883 27.7287 24.5111 28.782 25.0689C29.3396 25.3788 30.331 25.9985 30.9506 26.4943C31.6322 26.9901 32.9953 28.1056 32.9953 28.1056C33.6769 28.6633 33.8008 29.469 33.3671 30.3366C32.9334 31.1423 32.3138 31.8859 31.5083 32.5676C30.8887 33.1254 30.2691 33.3733 29.6494 33.4972H29.4016C29.1538 33.4972 28.8439 33.4353 28.5961 33.3733C27.6667 33.1254 26.1177 32.4437 23.4533 31.0183C21.7804 30.0887 20.3553 29.0972 19.178 28.1676C18.5584 27.6718 17.8768 27.114 17.2572 26.4323L17.0094 26.1844C16.3278 25.5027 15.7701 24.883 15.2745 24.2633C14.345 23.0858 13.3537 21.6604 12.4242 19.9871C10.9991 17.3842 10.3176 15.8349 10.0697 14.8433C10.0078 14.5955 9.9458 14.3476 9.9458 14.0377V13.7898C10.0078 13.1701 10.3176 12.5503 10.8752 11.9306C11.5568 11.1869 12.3003 10.5672 13.1058 10.0714C13.9733 9.6376 14.7788 9.76155 15.3364 10.4433C15.3364 10.4433 16.4517 11.8067 16.9474 12.4884C17.3811 13.1081 18.0007 14.0997 18.3725 14.6574C18.9302 15.649 18.5584 16.7025 18.0627 17.1364L16.9474 18.004C16.3898 18.4378 16.4517 19.3054 16.4517 19.3054C16.4517 19.3054 18.0008 25.4407 24.1349 27.052Z" fill="#775FFB"></path></g><defs><clipPath id="clip0_2025_8610"><rect width="314" height="48" fill="white"></rect></clipPath></defs></svg>